<svg id="Layer_2" viewBox="0 0 64 64" xmlns="http://www.w3.org/2000/svg"><path d="m.932 2.488c-.552.039-.967.518-.929 1.07.038.534.489.944 1.024.931h9.525l3.926 13.022 2.134 9.041h13.568l-1.677-10.304h-12.32l-3.933-13.053c-.129-.422-.52-.709-.96-.707h-10.264c-.03-.001-.064-.001-.094 0zm29.596 13.76 1.677 10.304h14.542l1.565-10.304zm19.802 0-1.564 10.304h12.514l2.68-9.021c.189-.642-.292-1.284-.96-1.283zm-33.247 12.304 2.187 9.258h12.744l-1.507-9.258zm15.448 0 1.505 9.258h11.001l1.404-9.258zm15.931 0-1.402 9.258h10.877l2.748-9.258zm-28.723 11.258 2.155 9.13c.107.451.509.77.972.769h10.961l-1.491-9.897h-12.597zm14.624 0 1.488 9.898h7.293l1.588-9.898zm12.392 0-1.585 9.898h8.486c.443 0 .835-.29.961-.715l2.727-9.183zm-18.052 11.834c-2.711 0-4.928 2.226-4.928 4.938s2.217 4.932 4.928 4.932c2.712 0 4.936-2.22 4.936-4.932 0-2.714-2.224-4.938-4.936-4.938zm18.63 0c-2.71 0-4.935 2.226-4.935 4.938s2.225 4.932 4.935 4.932c2.711 0 4.93-2.22 4.93-4.932 0-2.714-2.219-4.938-4.93-4.938z"/></svg>
