<svg xmlns="http://www.w3.org/2000/svg" viewBox="0 0 512 640" x="0px" y="0px"><g data-name="Layer 16"><path fill="#00215e" d="M419.72,419.72,92.26,92.27l-.07-.08a19,19,0,0,0-26.78,27l28.67,28.67a332.64,332.64,0,0,0-88.19,89h0a34.22,34.22,0,0,0,0,38.38h0C65.86,364,160.93,416,256,415.35a271.6,271.6,0,0,0,90.46-15.16l46.41,46.41a19,19,0,0,0,26.94-26.79ZM256,363.74a107.78,107.78,0,0,1-98.17-152.18l29.95,29.95a69.75,69.75,0,0,0,82.71,82.71l29.95,29.95A107.23,107.23,0,0,1,256,363.74Z"/><path fill="#00215e" d="M506.11,236.81h0C446.14,148,351.07,96,256,96.65a271.6,271.6,0,0,0-90.46,15.16l46,46A107.78,107.78,0,0,1,354.17,300.44l63.74,63.74a332.49,332.49,0,0,0,88.2-89h0A34.22,34.22,0,0,0,506.11,236.81Z"/><path fill="#00215e" d="M256,186.26a69.91,69.91,0,0,0-14.49,1.52l82.71,82.7A69.74,69.74,0,0,0,256,186.26Z"/></g></svg>
