<svg xmlns="http://www.w3.org/2000/svg" xmlns:xlink="http://www.w3.org/1999/xlink" version="1.1" x="0px" y="0px" viewBox="0 0 42 52.5" enable-background="new 0 0 42 42" xml:space="preserve"><path fill="#00215e" d="M33.851,32.439l-7.401-7.402c3.339-4.053,3.117-10.076-0.671-13.865c-1.951-1.951-4.546-3.025-7.305-3.025  s-5.354,1.074-7.305,3.025c-4.027,4.029-4.026,10.582,0,14.609c1.951,1.951,4.546,3.025,7.305,3.025c2.423,0,4.718-0.83,6.563-2.354  l7.399,7.4L33.851,32.439z M12.583,24.367c-3.247-3.248-3.247-8.533,0-11.781c1.573-1.572,3.666-2.439,5.891-2.439  s4.317,0.867,5.891,2.439c3.247,3.248,3.247,8.533,0,11.781c-1.573,1.572-3.666,2.439-5.891,2.439S14.156,25.939,12.583,24.367z"/></svg>
