<!-- icon666.com - MILLIONS vector ICONS FREE --><svg viewBox="0 0 480 480" xmlns="http://www.w3.org/2000/svg" xmlns:xlink="http://www.w3.org/1999/xlink"><linearGradient id="linear-gradient" gradientUnits="userSpaceOnUse" x1="70.29" x2="409.71" y1="70.29" y2="409.71"><stop offset="0" stop-color="#8dcf23"></stop><stop offset="1" stop-color="#00a552"></stop></linearGradient><g id="Layer_2" data-name="Layer 2"><g id="_07.G_" data-name="07.G_"><rect id="background" fill="url(#linear-gradient)" height="480" rx="240" width="480"></rect><path d="m348.45 246c0 64.2-44.7 103.2-103.5 103.2-66 0-113.4-48.6-113.4-108.9 0-60.9 48.3-109.5 110.1-109.5 40.2 0 74.1 19.8 91.8 48l-40.8 23.4c-8.7-13.8-27.6-24.6-51.3-24.6-35.4 0-61.8 26.1-61.8 63 0 35.7 25.2 61.8 66 61.8 27.9 0 46.2-12.3 53.7-32.4h-56.1v-42h105.3z" fill="#fff"></path></g></g></svg>